# xmcd
#
# Track frame offsets:
#	150
#	11512
#	18235
#	29440
#	44257
#	49500
#	56767
#	69005
#	75202
#	85605
#	98805
#	109965
#	113572
#	121095
#	129895
#	139922
#	150577
#	158685
#	165555
#	175815
#	185790
#	196327
#	201435
#	226077
#	244112
#	265200
#	285170
#	301080
#	317495
#	328376
#
# Disc length: 4587 seconds
#
# Revision: 0
# Processed by: cddbd v1.5.2PL0 Copyright (c) Steve Scherf et al.
# Submitted via: audiograbber 1.83.01
#
DISCID=7a11e91e
DTITLE=Frida Soundtrack - Frida - soundtrack
DYEAR=1900
DGENRE=
TTITLE0=Lila Downs - Benediction And Dream
TTITLE1=Elliot Goldenthal - The Floating Bed
TTITLE2=Los Cojolites - El Conejo
TTITLE3=Chavela Vargas - Paloma Negra
TTITLE4=Elliot Goldenthal - Self - Portrait With Hair Down
TTITLE5=Lila Downs - Alcoba Azul
TTITLE6=El Poder del Norte - Carabina 30 - 30
TTITLE7=Elliot Goldenthal - Solo Tu
TTITLE8=Trio Huasteco Caimanes De Tamuin - El Gusto
TTITLE9=Elliot Goldenthal - The Journey
TTITLE10=Liberacion, Miguel Galindo, Alejandro Marehuala, Gerardo Garcia - El A
TTITLE10=ntifaz
TTITLE11=Elliot Goldenthal - The Suicide Of Dorothy Hale
TTITLE12=Elliot Goldenthal - La Cavalera
TTITLE13=Salma Hayek And Los Vega - La Bruja
TTITLE14=Elliot Goldenthal - Portrait Of Lupe
TTITLE15=Chavela Vargas - La Llorona
TTITLE16=Lila Downs - Estrella Oscura
TTITLE17=Elliot Goldenthal - Still Life
TTITLE18=Trio, Marimberos - Viva La Vida
TTITLE19=Elliot Goldenthal - The Departure
TTITLE20=Lila Downs And Mariachi Juvenil De Tecalitlan - La Llorona
TTITLE21=Elliot Goldenthal - Burning Bed
TTITLE22=Caetano Veloso And Lila Downs - Burn It Blue
TTITLE23=Dana Glover - It is you (I have Loved)
TTITLE24=Elton John - This Train Don't Stop There Anymore
TTITLE25=Shelby Lynne - Killin' Kind
TTITLE26=A Camp - Song For The Leftovers
TTITLE27=Christina Undhjem - Back in my baby's arms
TTITLE28=Nanna Jacobi - Open Sky
TTITLE29=Titiyo - 1989 (Soul children radio remix)
EXTD=
EXTT0=
EXTT1=
EXTT2=
EXTT3=
EXTT4=
EXTT5=
EXTT6=
EXTT7=
EXTT8=
EXTT9=
EXTT10=
EXTT11=
EXTT12=
EXTT13=
EXTT14=
EXTT15=
EXTT16=
EXTT17=
EXTT18=
EXTT19=
EXTT20=
EXTT21=
EXTT22=
EXTT23=
EXTT24=
EXTT25=
EXTT26=
EXTT27=
EXTT28=
EXTT29=
PLAYORDER=
